<?xml version="1.0" encoding="UTF-8"?>
<svg id="Capa_1" xmlns="http://www.w3.org/2000/svg" viewBox="0 0 300 300">
  <defs>
    <style>
      .cls-1 {
        fill: #f7f7f7;
      }

      .cls-2 {
        fill: #afafaf;
      }
    </style>
  </defs>
  <g>
    <path class="cls-1" d="M35.11,5.11h230.88c16.29,0,29.51,13.23,29.51,29.51v230.86c0,16.29-13.22,29.51-29.51,29.51H35.11c-16.29,0-29.51-13.23-29.51-29.51V34.62c0-16.29,13.23-29.51,29.51-29.51Z"/>
    <path class="cls-2" d="M265.99,9.61c13.79,0,25.01,11.22,25.01,25.01v230.86c0,13.79-11.22,25.01-25.01,25.01H35.11c-13.79,0-25.01-11.22-25.01-25.01V34.62c0-13.79,11.22-25.01,25.01-25.01h230.88M265.99.61H35.11C16.32.61,1.09,15.84,1.09,34.62v230.86c0,18.79,15.23,34.01,34.01,34.01h230.88c18.79,0,34.01-15.23,34.01-34.01V34.62c0-18.79-15.23-34.01-34.01-34.01h0Z"/>
  </g>
  <path class="cls-2" d="M157.17,145.92c6.76-4.83,12.82-9.93,12.96-18.48.14-10.07-8.14-17.65-19.03-17.65-12.41,0-20.41,9.38-19.99,22.48h-12.82c.14-19.44,13.65-33.51,32.96-33.51,18.2,0,31.44,12.41,31.44,28.41,0,11.86-7.58,19.58-17.1,26.06-7.86,5.1-11.03,10.07-11.03,21.1h-11.58c0-15.58,5.24-22.2,14.2-28.41ZM141.58,193.63c0-4.27,3.17-7.45,7.58-7.45s7.58,3.17,7.58,7.45c0,4.55-3.17,7.72-7.58,7.72s-7.58-3.17-7.58-7.72Z"/>
</svg>