<?xml version="1.0" encoding="utf-8"?>
<!-- Generator: Adobe Illustrator 27.9.0, SVG Export Plug-In . SVG Version: 6.00 Build 0)  -->
<svg version="1.1" id="Layer_1" xmlns="http://www.w3.org/2000/svg" xmlns:xlink="http://www.w3.org/1999/xlink" x="0px" y="0px"
	 viewBox="0 0 360 360" style="enable-background:new 0 0 360 360;" xml:space="preserve">
<style type="text/css">
	.st0{fill:#001F4E;}
	.st1{fill:#FEEABA;}
	.st2{fill:#007FA4;}
	.st3{fill:#FDDE8F;}
</style>
<path class="st0" d="M295.174,36H64.826C48.931,36,36,48.931,36,64.826v122.428C36,277.992,84.449,324,180,324
	s144-46.008,144-136.746V64.826C324,48.931,311.069,36,295.174,36L295.174,36z"/>
<path class="st1" d="M295.174,45.601H64.826c-10.618,0-19.225,8.607-19.225,19.225v122.428c0,53.051,17.026,91.055,55.2,111.029
	l1.545-26.444c0.119-2.044,1.794-3.65,3.84-3.684l5.517-0.094c-1.939-4.675-6.767-7.743-11.47-10.718
	c-1.272-0.805-2.475-1.566-3.612-2.355l-18.692-11.668c-5.059-2.606-8.138-6.702-9.412-12.516c-0.01-0.047-0.02-0.094-0.029-0.142
	l-9.219-51.041c-0.017-0.099-0.032-0.2-0.043-0.301c-0.724-7.154,3.669-11.573,8.344-12.779c5.051-1.298,11.609,0.763,14.372,7.23
	c0.08,0.188,0.145,0.382,0.195,0.58c0.061,0.241,5.872,23.022,13.162,34.565c0.697-0.192,1.384-0.331,2.034-0.354
	c6.452-0.214,14.646,3.935,28.248,12.216c7.367-1.104,15.986,1.128,23.926,6.245c9.252,5.961,15.873,14.756,17.713,23.529
	c0.01,0.047,0.019,0.094,0.026,0.141l2.815,16.379l5.129-0.087c0.023-0.001,0.046-0.001,0.068-0.001
	c2.126,0,3.869,1.701,3.911,3.835L180,311.811l0.829-40.994c0.043-2.134,1.785-3.835,3.911-3.835c0.022,0,0.045,0,0.068,0.001
	l5.129,0.087l2.815-16.379c0.008-0.047,0.016-0.094,0.026-0.141c1.84-8.773,8.461-17.568,17.713-23.529
	c7.94-5.117,16.559-7.349,23.926-6.245c13.602-8.281,21.796-12.43,28.248-12.216c0.65,0.023,1.337,0.162,2.034,0.354
	c7.29-11.543,13.101-34.324,13.162-34.565c0.05-0.198,0.116-0.392,0.195-0.58c2.763-6.466,9.321-8.528,14.372-7.23
	c4.676,1.206,9.068,5.624,8.344,12.779c-0.011,0.102-0.025,0.202-0.043,0.301l-9.219,51.041c-0.009,0.048-0.019,0.095-0.028,0.142
	c-1.274,5.813-4.354,9.909-9.412,12.516l-18.692,11.668c-1.137,0.789-2.34,1.551-3.612,2.355c-4.703,2.975-9.531,6.042-11.47,10.718
	l5.517,0.094c2.046,0.034,3.721,1.64,3.84,3.684l1.545,26.444c38.174-19.973,55.2-57.977,55.2-111.028V64.826
	C314.399,54.208,305.792,45.601,295.174,45.601z"/>
<g>
	<path class="st0" d="M97.696,179.406c3.07,0,5.557,2.456,5.557,5.526s-2.487,5.556-5.557,5.556c-3.069,0-5.526-2.486-5.526-5.556
		S94.627,179.406,97.696,179.406z"/>
	<path class="st0" d="M111.41,202.154v-31.898h15.905v5.391h-9.808v7.333h7.688v5.391h-7.688v13.784H111.41z"/>
	<path class="st0" d="M137.788,170.256v22.311c0,3.049,1.325,4.639,4.285,4.639c2.96,0,4.33-1.59,4.33-4.639v-22.311h6.097v22.356
		c0,7.024-4.153,9.984-10.427,9.984c-6.273,0-10.382-2.96-10.382-9.984v-22.356H137.788z"/>
	<path class="st0" d="M157.626,202.154v-31.898h6.671l8.483,18.909h0.089v-18.909h5.566v31.898h-5.832l-9.322-20.588h-0.089v20.588
		H157.626z"/>
	<path class="st0" d="M183.667,170.256h8.483c6.981,0,10.868,3.005,11.134,11.046v9.808c-0.265,8.041-4.153,11.045-11.134,11.045
		h-8.483V170.256z M189.765,196.764h2.12c3.358,0,5.302-1.59,5.302-6.362v-8.395c0-4.506-1.502-6.361-5.302-6.361h-2.12V196.764z"/>
	<path class="st0" d="M207.482,202.154v-31.898h16.701v5.391h-10.604v7.333h8.085v5.391h-8.085v8.394h11.046v5.39H207.482z"/>
	<path class="st0" d="M228.973,170.256h8.483c6.981,0,10.868,3.005,11.134,11.046v9.808c-0.265,8.041-4.153,11.045-11.134,11.045
		h-8.483V170.256z M235.071,196.764h2.12c3.358,0,5.302-1.59,5.302-6.362v-8.395c0-4.506-1.502-6.361-5.302-6.361h-2.12V196.764z"/>
	<path class="st0" d="M262.273,179.406c3.07,0,5.557,2.456,5.557,5.526s-2.487,5.556-5.557,5.556c-3.069,0-5.526-2.486-5.526-5.556
		S259.203,179.406,262.273,179.406z"/>
</g>
<path class="st0" d="M78.467,117.622c0,8.701,3.807,11.093,9.788,11.093c5.982,0,9.789-2.393,9.789-11.093v-5.221h15.009v3.263
	c0,19.36-10.224,26.32-24.798,26.32c-14.574,0-24.798-6.961-24.798-26.32V87.603c0-19.36,10.224-26.32,24.798-26.32
	c14.574,0,24.798,6.961,24.798,26.32v0.218H98.044v-2.175c0-8.701-3.807-11.094-9.789-11.094c-5.982,0-9.788,2.393-9.788,11.094
	V117.622z"/>
<path class="st0" d="M121.157,140.896V62.371h21.644c18.49,0,27.517,8.701,27.517,23.492c0,14.792-9.028,23.493-27.517,23.493
	h-6.634v31.541H121.157z M136.166,96.957h8.048c7.396,0,11.094-3.698,11.094-11.094c0-7.396-3.698-11.093-11.094-11.093h-8.048
	V96.957z"/>
<path class="st2" d="M208.878,84.231c-2.501-7.396-5.764-10.55-10.985-10.55c-5.329,0-8.266,3.263-8.266,8.592
	c0,11.855,33.498,12.725,33.498,37.306c0,13.487-9.245,22.405-25.015,22.405c-12.182,0-21.644-6.634-25.668-22.079l14.791-3.155
	c1.741,9.463,7.179,12.834,11.638,12.834c5.22,0,9.244-3.48,9.244-9.353c0-14.792-33.498-15.009-33.498-36.979
	c0-13.487,8.048-21.97,23.601-21.97c13.377,0,21.535,7.939,24.145,19.033L208.878,84.231z"/>
<path class="st2" d="M229.598,140.896V62.371h15.009v78.526H229.598z"/>
<path class="st2" d="M256.47,140.896V62.371h39.154v13.269h-24.145v18.055h18.925v13.269h-18.925v33.934H256.47z"/>
<path class="st0" d="M292.023,158.741H67.977c-1.767,0-3.2-1.433-3.2-3.2c0-1.768,1.433-3.2,3.2-3.2h224.045
	c1.768,0,3.2,1.433,3.2,3.2C295.223,157.309,293.79,158.741,292.023,158.741z"/>
<path class="st3" d="M292.999,178.393l-9.177,50.802c-0.988,4.43-3.199,6.089-5.443,7.221c-0.106,0.054-0.21,0.111-0.31,0.175
	L259.151,248.4c-0.057,0.035-0.112,0.072-0.167,0.11c-1.017,0.71-2.175,1.442-3.401,2.218c-5.693,3.601-13.36,8.452-15.461,17.194
	l-42.267-0.717l2.598-15.113c1.44-6.747,6.772-13.655,14.277-18.491c6.681-4.303,14.01-6.129,19.599-4.884
	c0.994,0.224,2.03,0.048,2.896-0.483c9.804-6.005,19.793-11.855,24.941-11.855c0.076,0,0.152,0.001,0.225,0.004
	c1.103,0.058,3.281,1.691,4.185,2.948l-20.75,14.037c-0.664,0.45-1.174,1.092-1.461,1.841c-1.288,3.358-2.589,6.299-5.48,8.299
	c-1.778,1.23-2.223,3.667-0.994,5.444c1.231,1.778,3.668,2.223,5.444,0.994c4.278-2.958,6.369-7.018,7.883-10.775l21.692-14.674
	c0.704-0.477,1.234-1.169,1.509-1.973c0.821-2.396,0.322-5.098-1.407-7.611c-0.467-0.679-1.028-1.316-1.628-1.924
	c7.532-12.052,13.184-33.298,13.979-36.382c1.121-2.324,3.412-2.925,5.111-2.487C291.536,174.394,293.259,175.312,292.999,178.393z"
	/>
<path class="st3" d="M69.526,174.12c1.699-0.438,3.99,0.164,5.111,2.487c0.796,3.084,6.447,24.33,13.979,36.382
	c-0.599,0.608-1.16,1.245-1.628,1.924c-1.73,2.513-2.229,5.215-1.407,7.611c0.275,0.804,0.805,1.496,1.509,1.973l21.692,14.674
	c1.513,3.757,3.604,7.817,7.883,10.775c1.777,1.23,4.214,0.784,5.444-0.994c1.23-1.778,0.784-4.215-0.994-5.444
	c-2.891-1.999-4.192-4.941-5.48-8.299c-0.287-0.749-0.797-1.391-1.461-1.841l-20.75-14.037c0.904-1.257,3.083-2.89,4.185-2.948
	c0.073-0.003,0.148-0.004,0.225-0.004c5.147,0,15.136,5.851,24.941,11.855c0.866,0.531,1.902,0.706,2.896,0.483
	c5.588-1.245,12.917,0.581,19.599,4.884c7.505,4.836,12.837,11.744,14.277,18.491l2.598,15.113l-42.267,0.717
	c-2.101-8.741-9.767-13.593-15.461-17.194c-1.226-0.775-2.385-1.508-3.401-2.218c-0.055-0.038-0.11-0.075-0.167-0.11l-18.918-11.809
	c-0.1-0.063-0.204-0.121-0.31-0.175c-2.244-1.132-4.455-2.791-5.443-7.221l-9.177-50.802
	C66.741,175.312,68.464,174.394,69.526,174.12z"/>
<path class="st2" d="M172.222,314.287l-0.797-39.412l-4.644,0.079c-0.004,0-0.007,0.001-0.011,0.001
	c-0.002,0-0.005-0.001-0.007-0.001l-56.816,0.964l-1.519,25.989C125.75,309.376,146.908,313.58,172.222,314.287z"/>
<path class="st2" d="M251.571,301.906l-1.519-25.989l-56.816-0.964c-0.002,0-0.005,0.001-0.007,0.001
	c-0.004,0-0.007-0.001-0.011-0.001l-4.644-0.079l-0.797,39.412C213.092,313.58,234.25,309.376,251.571,301.906z"/>
</svg>
