<?xml version="1.0" encoding="UTF-8"?>
<svg id="Capa_1" data-name="Capa 1" xmlns="http://www.w3.org/2000/svg" viewBox="0 0 627.16 611.56">
  <defs>
    <style>
      .cls-1 {
        fill: #304793;
      }

      .cls-1, .cls-2, .cls-3, .cls-4 {
        stroke-width: 0px;
      }

      .cls-2 {
        fill: #fff;
      }

      .cls-3 {
        fill: #80c0da;
      }

      .cls-4 {
        fill: #f7f7f7;
      }
    </style>
  </defs>
  <polygon class="cls-4" points="627.03 305.78 579.48 366.49 596.05 441.82 526.79 475.79 509.03 550.85 431.9 551.53 383.33 611.44 313.58 578.46 243.83 611.44 195.25 551.53 118.13 550.85 100.37 475.79 31.11 441.82 47.68 366.49 .12 305.78 47.68 245.07 31.11 169.74 100.37 135.77 118.13 60.71 195.25 60.04 243.83 .12 313.58 33.1 383.33 .12 431.9 60.04 509.03 60.71 526.79 135.78 596.05 169.74 579.48 245.07 627.03 305.78"/>
  <g>
    <g>
      <path class="cls-1" d="M81.66,278l.86-5.17,35.5,5.92,3.36-20.17,4.54.76-4.23,25.34-40.05-6.68Z"/>
      <path class="cls-1" d="M120.38,251.81c-4.83-1.72-6.95-7.11-4.98-15.58l1.78-7.93-1.09-.38c-3.69-1.31-7.02.5-8.62,5.01-1.46,4.12-.42,7.55,3.02,8.71l-1.62,4.56c-5.81-2.06-7.9-7.88-5.45-14.77,2.52-7.11,8.14-10.19,14.38-7.97l18.18,6.46-1.6,4.5-4.02-1.43-.17.49c2.45,3.07,3.05,6.89,1.49,11.29-2.1,5.92-6.58,8.72-11.3,7.05ZM123.48,230.54l-2.44-.87-1.83,7.91c-1.28,5.84.12,8.78,2.67,9.69,2.61.92,4.99-.8,6.3-4.49,1.99-5.59-.08-10.6-4.7-12.24Z"/>
      <path class="cls-1" d="M134.92,215.29l-15.69-8.39-2.23,4.16-3.35-1.79,2.23-4.16-7.76-5.39,1.77-3.3,8.25,4.48,3.53-6.6,3.35,1.79-3.53,6.6,15.54,8.31c2.44,1.3,4.98.7,6.28-1.73.41-.76.91-2.19,1.12-3.32l3.4,1.82c-.25,1.44-.89,3.25-1.57,4.52-2.31,4.32-6.82,5.43-11.34,3.01Z"/>
      <path class="cls-1" d="M120.77,178.92c-1.62-1.1-1.95-3.07-.82-4.74,1.13-1.67,3.05-2.03,4.67-.93,1.67,1.13,2.08,3.09.94,4.75s-3.13,2.05-4.8.91ZM128.78,183.12l2.69-3.95,24.04,16.37-2.69,3.95-24.04-16.37Z"/>
      <path class="cls-1" d="M140.14,166.95l3.2-3.55,2.95,2.66.39-.43c-1.01-3.7-.22-7.33,2.37-10.2,4.94-5.47,12.12-5.36,17.6-.42l12.92,11.65-3.2,3.55-12.92-11.65c-3.63-3.28-8.25-3.49-11.61.23-3.28,3.64-3.27,9.3.49,12.7l12.62,11.38-3.2,3.55-21.6-19.48Z"/>
      <path class="cls-1" d="M178.71,114.96l23.61-14.82,2.45,3.9-19.12,12,6.74,10.73,17.17-10.78,2.45,3.9-17.17,10.78,7.5,11.95,19.61-12.31,2.45,3.9-24.1,15.13-21.59-34.39Z"/>
      <path class="cls-1" d="M221.64,103.49l4.46-1.72,1.43,3.71.54-.21c.77-3.75,3.12-6.64,6.72-8.02,6.88-2.65,13.23.7,15.89,7.57l6.26,16.23-4.46,1.72-6.26-16.23c-1.76-4.57-5.79-6.84-10.46-5.04-4.57,1.76-7.12,6.82-5.3,11.55l6.12,15.85-4.46,1.72-10.47-27.13Z"/>
      <path class="cls-1" d="M265.84,123.25l4.41-2.57c2.3,4.16,6.38,6.14,11.49,5.26,6.24-1.08,9.63-5.82,8.52-12.23l-.67-3.86-.57.1c-1.95,3.61-5.07,6.14-9.56,6.92-8.63,1.49-15.96-3.72-17.48-12.52-1.53-8.85,3.58-16.46,12.2-17.95,4.6-.8,8.4.59,11.39,3.35l.57-.1-.71-4.09,4.65-.81,4.87,28.15c1.55,8.97-3.47,15.74-12.72,17.34-7.38,1.28-13.44-1.35-16.41-6.98ZM288.03,99.83c-1.12-6.47-6.48-10.39-12.6-9.33-6.19,1.07-9.85,6.56-8.73,13.03,1.09,6.3,6.38,10.18,12.56,9.1,6.19-1.07,9.86-6.5,8.77-12.8Z"/>
      <path class="cls-1" d="M303.94,75.2c-.05-1.96,1.35-3.38,3.37-3.43,2.01-.05,3.43,1.29,3.48,3.25.05,2.02-1.29,3.49-3.3,3.54-2.01.05-3.49-1.35-3.55-3.36ZM305.21,84.15l4.78-.13.77,29.07-4.78.13-.77-29.07Z"/>
      <path class="cls-1" d="M324.92,83.92l4.75.52-.43,3.95.57.06c2.41-2.98,5.82-4.46,9.65-4.05,7.33.8,11.44,6.69,10.64,14.02l-1.88,17.29-4.75-.52,1.88-17.29c.53-4.87-2-8.73-6.98-9.28-4.87-.53-9.46,2.79-10.01,7.83l-1.84,16.89-4.75-.52,3.15-28.91Z"/>
      <path class="cls-1" d="M360.44,102.91c2.62-8.47,10.69-12.72,19.28-10.06,8.47,2.62,12.67,10.68,10.03,19.2-.17.55-.38,1.21-.62,1.8l-24.59-7.62c-1.08,5.82,1.83,10.82,7.5,12.57,4.12,1.28,8.4.31,11.19-2.44l3.2,3.1c-3.72,4.03-9.61,5.34-15.77,3.43-8.69-2.69-12.97-11.07-10.21-19.98ZM385.63,108.36c.73-5.26-2.14-9.83-7.42-11.46-5.12-1.58-10.06.56-12.38,5.33l19.8,6.14Z"/>
      <path class="cls-1" d="M398.93,115.86c4.23-7.8,12.98-10.39,20.88-6.11,7.8,4.23,10.34,12.95,6.08,20.8-.27.51-.6,1.11-.96,1.64l-22.63-12.28c-2.19,5.49-.32,10.97,4.9,13.8,3.8,2.06,8.18,1.95,11.45-.21l2.53,3.67c-4.44,3.23-10.47,3.36-16.14.29-8-4.34-10.56-13.39-6.11-21.6ZM422.59,126.14c1.74-5.02-.18-10.06-5.04-12.69-4.71-2.55-9.98-1.42-13.19,2.81l18.23,9.89Z"/>
      <path class="cls-1" d="M443.6,125.97l3.69,2.85-2.4,3.1.41.32c2.67-1.29,6.35-.77,8.9,1.2,1.05.81,1.97,1.88,2.37,2.78l-2.71,3.51c-.8-1.42-2.02-2.66-2.89-3.33-3.46-2.68-8.27-1.44-11.8,3.11l-9.58,12.4-3.78-2.92,17.78-23.02Z"/>
      <path class="cls-1" d="M465.29,144l3.45,3.31-20.13,21-3.45-3.31,20.13-21ZM470.76,136.79c1.35-1.41,3.35-1.42,4.81-.02,1.46,1.39,1.5,3.35.14,4.76-1.4,1.46-3.39,1.54-4.84.14-1.46-1.4-1.5-3.43-.1-4.89Z"/>
      <path class="cls-1" d="M479.35,157.88l2.97,3.75-3.11,2.47.36.45c3.82-.38,7.26,1,9.66,4.02,4.58,5.78,3.28,12.84-2.5,17.42l-13.63,10.81-2.97-3.74,13.63-10.81c3.83-3.04,4.81-7.56,1.69-11.49-3.04-3.83-8.63-4.77-12.6-1.62l-13.31,10.56-2.97-3.75,22.79-18.08Z"/>
      <path class="cls-1" d="M473.65,205.97l3.77,3.43c-3.28,3.44-3.95,7.93-1.58,12.54,2.9,5.63,8.43,7.45,14.22,4.47l3.48-1.79-.26-.51c-4.03-.78-7.38-3.01-9.46-7.05-4-7.78-1.22-16.34,6.72-20.43,7.99-4.11,16.78-1.51,20.78,6.28,2.13,4.15,1.95,8.19.22,11.87l.26.51,3.69-1.9,2.16,4.2-25.4,13.07c-8.09,4.16-16.06,1.4-20.35-6.95-3.43-6.66-2.73-13.23,1.75-17.74ZM502.64,220.13c5.84-3,7.98-9.29,5.13-14.82-2.87-5.58-9.21-7.44-15.04-4.44-5.68,2.92-7.8,9.13-4.93,14.71,2.87,5.58,9.15,7.47,14.84,4.54Z"/>
      <path class="cls-1" d="M513.15,252.41l.93,5.1c-6.17,1.18-9.05,6.22-7.69,13.7,1.19,6.52,4.71,9.79,9.19,8.98,5.5-1,5.39-6.72,5.26-12.9-.18-7.4.24-15.67,8.91-17.26,7.2-1.31,12.9,3.33,14.66,12.96,1.79,9.8-2.23,16.68-10.66,18.28l-.91-4.99c5.67-1.03,8.29-5.61,7.04-12.46-1.18-6.46-4.59-9.46-8.9-8.68-5.27.96-5.26,6.46-5.09,12.52.13,7.47.04,15.97-9.02,17.63-7.48,1.36-13.22-3.5-15.01-13.3-1.91-10.48,2.41-17.94,11.3-19.56Z"/>
      <path class="cls-1" d="M513.67,298.73l17.79-.29-.08-4.72,3.8-.06.08,4.72,9.4.94.06,3.74-9.39.09.12,7.49-3.8.06-.12-7.49-17.62.29c-2.76.04-4.69,1.8-4.65,4.57.01.86.27,2.36.63,3.45l-3.86.06c-.48-1.38-.8-3.27-.83-4.71-.08-4.89,3.33-8.06,8.45-8.14Z"/>
      <path class="cls-1" d="M502.48,346.14l.68-4.73,3.93.56.08-.57c-2.85-2.44-4.21-5.96-3.67-9.72,1.05-7.36,7.01-11.22,14.37-10.17l17.16,2.45-.68,4.73-17.16-2.45c-4.9-.7-8.79,1.65-9.5,6.61-.69,4.85,2.42,9.54,7.49,10.26l16.76,2.4-.68,4.73-28.8-4.12Z"/>
      <path class="cls-1" d="M514.51,359.34c8.58,3.02,12.61,11.34,9.78,19.38-1.55,4.4-4.68,7.39-8.7,8.23l-.19.54,16.57,5.84-1.59,4.51-39.93-14.06,1.59-4.51,4.24,1.49.19-.54c-2.66-3.2-3.37-7.42-1.8-11.87,2.83-8.04,11.26-12.03,19.84-9.01ZM505.75,384.22c6.03,2.12,12.21-.52,14.28-6.39,2.09-5.92-1.07-11.86-7.1-13.98-6.14-2.16-12.29.56-14.35,6.42-2.07,5.87,1.15,11.82,7.18,13.95Z"/>
      <path class="cls-1" d="M499.73,399.07c7.61,4.55,9.83,13.4,5.22,21.11-4.55,7.61-13.37,9.79-21.03,5.2-.49-.29-1.09-.65-1.6-1.02l13.22-22.09c-5.4-2.42-10.95-.78-13.99,4.31-2.22,3.71-2.29,8.09-.27,11.45l-3.77,2.38c-3.04-4.57-2.92-10.61.4-16.14,4.67-7.81,13.83-9.98,21.83-5.19ZM488.46,422.26c4.94,1.95,10.06.24,12.89-4.5,2.75-4.6,1.83-9.91-2.25-13.29l-10.65,17.79Z"/>
      <path class="cls-1" d="M487.56,443.93l-3.19,3.56-2.96-2.65-.38.43c1.02,3.7.24,7.33-2.33,10.21-4.92,5.49-12.1,5.4-17.59.49l-12.96-11.6,3.19-3.56,12.96,11.6c3.65,3.26,8.27,3.46,11.61-.28,3.26-3.65,3.24-9.32-.54-12.7l-12.66-11.33,3.19-3.56,21.68,19.4Z"/>
      <path class="cls-1" d="M443.54,458.1l11.26,13.78,3.66-2.99,2.41,2.94-3.66,2.99,5.09,7.96-2.9,2.37-5.9-7.3-5.8,4.74-2.41-2.94,5.8-4.74-11.15-13.64c-1.75-2.14-4.33-2.56-6.47-.81-.67.55-1.68,1.67-2.31,2.63l-2.44-2.99c.78-1.23,2.07-2.66,3.18-3.57,3.79-3.1,8.38-2.39,11.63,1.58Z"/>
      <path class="cls-1" d="M427.96,473.42l-3.96,2.36c-2.17-3.53-6.39-4.3-11.09-1.5-3.76,2.24-5.24,5.27-3.68,7.89,1.95,3.26,5.51,1.48,9.56-.27,4.97-2.23,11.1-4.21,14.5,1.48,2.89,4.85.61,10.24-5.38,13.81-6.23,3.72-12.46,2.94-15.53-2.2l4.01-2.39c1.88,3.04,5.65,3.4,9.51,1.1,3.61-2.15,5.11-5.26,3.58-7.83-1.86-3.12-5.37-1.36-9.35.41-5.05,2.21-11.15,4.24-14.72-1.75-2.92-4.9-.79-9.99,5.59-13.8,7.17-4.28,13.42-3.25,16.96,2.69Z"/>
      <path class="cls-1" d="M408.13,506.97l.34,7.18c1.51-.3,2.9.39,3.56,1.86.74,1.63.13,3.36-1.6,4.14-1.68.76-3.43.1-4.17-1.53-.33-.73-.43-1.51-.44-2.52l-.08-8.69,2.39-.45Z"/>
      <path class="cls-1" d="M361.57,534.16l-7.01,1.36-22.6-36.99,4.92-.95,5.12,8.28,20.3-3.93,1.66-9.59,4.92-.95-7.32,42.78ZM344.29,509.81l12.66,20.55.51-.1,4.13-23.8-17.3,3.35Z"/>
      <path class="cls-1" d="M327.04,508.11l-4.61.07c-.12-4.14-3.39-6.92-8.87-6.83-4.38.07-7.17,1.96-7.12,5.01.06,3.8,4.04,4.02,8.42,4.53,5.42.55,11.72,1.88,11.83,8.51.09,5.64-4.58,9.17-11.54,9.29-7.26.12-12.27-3.66-12.37-9.65l4.67-.08c.12,3.57,3.2,5.77,7.7,5.69,4.2-.07,7.05-2.01,7-5.01-.06-3.63-3.98-3.85-8.31-4.3-5.48-.6-11.78-1.88-11.89-8.85-.09-5.7,4.29-9.06,11.72-9.18,8.35-.13,13.25,3.88,13.37,10.79Z"/>
      <path class="cls-1" d="M292.44,507.62l-4.54-.76c.62-4.1-2.09-7.41-7.49-8.31-4.32-.72-7.4.64-7.91,3.65-.62,3.75,3.25,4.69,7.47,5.97,5.24,1.51,11.19,3.96,10.1,10.5-.93,5.57-6.15,8.2-13.03,7.06-7.16-1.19-11.41-5.81-10.43-11.72l4.6.77c-.53,3.53,2.11,6.25,6.54,6.99,4.15.69,7.3-.71,7.79-3.67.6-3.58-3.22-4.51-7.4-5.73-5.28-1.58-11.25-3.98-10.1-10.85.94-5.62,5.85-8.13,13.18-6.91,8.24,1.37,12.34,6.2,11.2,13.02Z"/>
      <path class="cls-1" d="M257.24,505.9c-3.14,8.6-11.43,12.51-20.03,9.37-8.55-3.12-12.43-11.46-9.3-20.06,3.16-8.66,11.5-12.54,20.05-9.42,8.6,3.14,12.43,11.46,9.28,20.12ZM232.4,496.85c-2.25,6.17.39,12.22,6.29,14.37,5.95,2.17,11.81-.78,14.06-6.95,2.27-6.22-.31-12.25-6.27-14.42-5.9-2.15-11.81.78-14.08,7Z"/>
      <path class="cls-1" d="M219.1,490.89c-4.71,7.79-13.52,10.13-21.07,5.58-6.11-3.69-8.87-10.61-6.59-16.5l4.32,1.87c-1.29,4.14.66,8.61,4.45,10.9,5.08,3.07,11.39,1.43,14.79-4.32,3.48-5.77,2.1-12.06-2.98-15.12-3.89-2.35-8.66-1.93-11.76.97l-3.71-2.99c4.32-4.59,11.74-5.29,17.71-1.68,7.54,4.56,9.59,13.53,4.83,21.29Z"/>
      <path class="cls-1" d="M171.05,487.31c-1.23,1.52-3.22,1.69-4.79.42-1.57-1.27-1.77-3.21-.54-4.74,1.27-1.57,3.25-1.82,4.82-.55,1.57,1.27,1.78,3.29.51,4.86ZM175.9,479.67l-3.71-3.01,18.31-22.6,3.71,3.01-18.31,22.6Z"/>
      <path class="cls-1" d="M178.2,453.72c-3.71,3.54-9.48,2.99-16.15-2.59l-6.27-5.16-.83.79c-2.84,2.7-2.72,6.49.57,9.95,3.02,3.17,6.55,3.79,9.14,1.24l3.34,3.5c-4.46,4.25-10.59,3.49-15.64-1.81-5.2-5.46-5.41-11.86-.62-16.43l13.97-13.31,3.3,3.46-3.09,2.94.36.38c3.85-.8,7.53.39,10.74,3.76,4.33,4.55,4.81,9.81,1.18,13.27ZM160.62,441.36l-1.88,1.79,6.23,5.2c4.63,3.78,7.89,3.86,9.85,1.99,2-1.91,1.54-4.81-1.16-7.65-4.09-4.3-9.5-4.71-13.04-1.34Z"/>
      <path class="cls-1" d="M152.17,424.29l-14.56,10.24,2.72,3.86-3.11,2.19-2.72-3.86-8.31,4.5-2.15-3.06,7.71-5.35-4.31-6.13,3.11-2.19,4.31,6.13,14.42-10.14c2.26-1.59,2.87-4.13,1.28-6.39-.5-.71-1.55-1.8-2.46-2.5l3.16-2.22c1.17.87,2.5,2.25,3.33,3.43,2.82,4.01,1.78,8.54-2.42,11.49Z"/>
      <path class="cls-1" d="M113.32,420.56c-1.71.95-3.62.36-4.6-1.4-.98-1.76-.44-3.64,1.27-4.59,1.76-.98,3.69-.47,4.67,1.3s.42,3.72-1.35,4.7ZM120.67,415.3l-2.32-4.18,25.44-14.11,2.32,4.18-25.44,14.11Z"/>
      <path class="cls-1" d="M125.36,394.08c-8.56,3.26-16.94-.46-20.2-9.01-3.24-8.51.53-16.9,9.09-20.16,8.61-3.28,17.01.49,20.25,8.99,3.26,8.56-.53,16.9-9.14,20.18ZM115.96,369.37c-6.14,2.34-8.99,8.29-6.75,14.16,2.25,5.92,8.32,8.42,14.46,6.08,6.19-2.36,9.06-8.26,6.81-14.18-2.23-5.87-8.32-8.42-14.51-6.06Z"/>
      <path class="cls-1" d="M97.22,356.4l-.81-4.71,3.92-.67-.1-.57c-3.53-1.5-5.89-4.36-6.55-8.17-1.25-7.27,3.28-12.84,10.55-14.09l17.14-2.95.81,4.71-17.14,2.95c-4.82.83-7.85,4.33-7,9.27.83,4.83,5.29,8.32,10.28,7.46l16.75-2.88.81,4.71-28.67,4.93Z"/>
    </g>
    <g>
      <g>
        <polygon class="cls-3" points="283.5 253.37 294.57 254.48 298.99 262.22 310.8 252.75 332.58 255.36 373.6 272.76 387.28 292.66 424.58 305.09 427.07 318.17 399.71 364.77 384.79 368.5 349.98 408.29 332.58 416.99 320.14 436.88 315.17 450.56 303.98 448.07 303.98 423.21 313.93 385.91 320.14 348.61 300.25 336.17 282.84 305.09 287.82 290.17 297.76 264.06 289.04 262.22 281.29 261.12 269.12 263.33 245.88 244.52 224.06 236.14 196.37 210.31 190.84 182 214.46 188.22 238.82 201.08 238.08 215.05 249.27 222.51 260.97 215.84 269.17 223.03 265.88 231.73 275.38 241.68 283.5 253.37"/>
        <polygon class="cls-3" points="308.94 213.08 295.82 211.8 281.85 204.93 273.18 206.32 270.9 192.14 284.08 190.02 299.82 197.76 310.33 198.78 308.94 213.08"/>
        <rect class="cls-3" x="312.52" y="210.51" width="7.91" height="14.36"/>
        <rect class="cls-3" x="325" y="204.97" width="7.5" height="14.36"/>
      </g>
      <g>
        <g>
          <polygon class="cls-2" points="201.51 349.51 201.08 251.24 231.65 251.24 229.98 349.51 201.51 349.51"/>
          <path class="cls-1" d="M227.82,255.01l-1.54,90.74h-21.02l-.4-90.74h22.96M235.48,247.48h-38.19l.03,7.56.4,90.74.03,7.5h35.92l.13-7.4,1.54-90.74.13-7.66h0Z"/>
        </g>
        <g>
          <path class="cls-2" d="M243.05,342.74l-11.15-26.92,6.65-26.59,17.86-14.53,27-.21,17,12.47,9.01,23.17-47.96,11.53,2.28,4.87,7.19,2.2,8.68-3.18,3.83-6.28,27.65,6.89-15.74,20.11-21.74,6.75-30.56-10.27ZM267.12,299.41l2.09-.55-1.45-.93-.64,1.48Z"/>
          <path class="cls-1" d="M282.19,278.26l15.11,11.08,7.05,18.13-48.25,11.6,4.94,10.56,10,3.06,11.1-4.07,3.08-5.04,19.34,4.82-11.44,14.61-19.46,6.04-27.78-9.34-10.02-24.19,6.04-24.17,15.86-12.9,24.43-.19M260.6,305.01l17.86-4.68-12.39-7.97-5.47,12.65M284.63,270.71l-2.5.02-24.43.19-2.64.02-2.05,1.67-15.86,12.9-1.94,1.58-.61,2.43-6.04,24.17-.6,2.41.95,2.3,10.02,24.19,1.31,3.17,3.25,1.09,27.78,9.34,2.31.78,2.33-.72,19.46-6.04,2.25-.7,1.45-1.85,11.44-14.61,7.15-9.14-11.26-2.81-13.01-3.24,12.75-3.06,8.38-2.01-3.13-8.04-7.05-18.13-.8-2.05-1.77-1.3-15.11-11.08-2.01-1.48h0ZM268.11,323.92l9.46-2.27-.49.81-6.26,2.29-2.71-.83h0Z"/>
        </g>
        <g>
          <path class="cls-2" d="M332.96,350.87l-14.43-6.79-10.22-16.44,21.17-8.2-8.39-2.03-10.44-11.7.37-17.17,14-13.2,19.74-2.11,18.46,4.94,11.6,18.06-20.3,6.51,5.03,1.26,14.21,10.24,3.71,16.12-8,14.84-16.84,6.03-19.65-.34ZM346.71,328.12l1.02-.94-3.01-4.05-11.51-2.79,5.17,7.17,8.33.61ZM348.87,301.32l-1.5-3.23-3.02-1.47-4.69-.34-1.6,1.46.21.94,10.6,2.65Z"/>
          <path class="cls-1" d="M344.45,277.04l16.37,4.38,8.16,12.71-16.81,5.39-1.96-4.23-4.88-2.37-7.03-.51-4.41,4.03,1.21,5.33,22.81,5.7,12.48,8.99,3.07,13.35-6.64,12.32-14.84,5.31-18.16-.31-12.69-5.97-7.23-11.63,16.63-6.44,5.82,8.08,11.71.85,4.72-4.34-5.85-7.87-23.82-5.77-8.67-9.72.31-14.12,11.93-11.25,17.78-1.9M345.05,269.4l-1.39.15-17.78,1.9-2.52.27-1.85,1.74-11.93,11.25-2.29,2.16-.07,3.15-.31,14.12-.06,2.96,1.97,2.21,8.67,9.72.67.75-6.98,2.7-8.47,3.28,4.8,7.71,7.23,11.63,1.18,1.89,2.01.95,12.69,5.97,1.46.69,1.62.03,18.16.31,1.37.02,1.29-.46,14.84-5.31,2.72-.97,1.37-2.54,6.64-12.32,1.35-2.5-.64-2.76-3.07-13.35-.64-2.77-2.3-1.66-9.76-7.03,6.26-2.01,9.33-2.99-5.3-8.25-8.16-12.71-1.57-2.45-2.81-.75-16.37-4.38-1.35-.36h0Z"/>
        </g>
        <g>
          <path class="cls-2" d="M386.27,344.8l-7.16-15.84,4.21-16.23,11.79-8.25,7.11-1.72-22.01-9.21,16.11-14.65,20.18-5.66,21.88,3.52,10.74,11.93,1.59,12.18.84,49.31h-25.89v-2.96l-2.86,2.15-20.67,2.23-15.86-6.81ZM410.99,330.67l4.59-.96,3.34-5.22-7.02-2.34-4.47,1.37-.96,4.33,4.52,2.82ZM411.32,300.55l2.07-.5,11.96-.59-.02-.28-4.28-2.45-7.28.73-2.44,3.09Z"/>
          <path class="cls-1" d="M416.72,277.09l19.75,3.18,9.06,10.07,1.41,10.81.77,45.27h-18.29v-6.72l-8.06,6.04-18.66,2.01-13.61-5.84-6.01-13.3,3.53-13.6,10.07-7.05,17.24-4.18,15.49-.77-.5-6.13-7.05-4.03-10.07,1.01-5.23,6.62-19.45-8.14,11.08-10.07,18.53-5.2M410.28,334.66l7.62-1.59,6.8-10.63-12.75-4.25-7.71,2.37-2.01,9.07,8.06,5.04M416.28,269.39l-1.6.45-18.53,5.2-1.71.48-1.32,1.2-11.08,10.07-8.75,7.96,10.91,4.56,7.34,3.07-9.25,6.48-2.27,1.59-.7,2.69-3.53,13.6-.67,2.57,1.09,2.42,6.01,13.3,1.2,2.67,2.69,1.15,13.61,5.84,1.81.78,1.96-.21,18.38-1.98v.69h33.48l-.13-7.66-.77-45.27v-.42s-.06-.42-.06-.42l-1.41-10.81-.3-2.32-1.57-1.74-9.06-10.07-1.78-1.97-2.62-.42-19.75-3.18-1.64-.26h0ZM411.14,326.32l.72-.22,1,.33-1.16.24-.57-.35h0Z"/>
        </g>
      </g>
    </g>
  </g>
</svg>