<?xml version="1.0" encoding="UTF-8"?>
<svg id="Capa_1" data-name="Capa 1" xmlns="http://www.w3.org/2000/svg" viewBox="0 0 34.53 39.25">
  <defs>
    <style>
      .cls-1 {
        fill: #91be4a;
        stroke-width: 0px;
      }
    </style>
  </defs>
  <polygon class="cls-1" points="13.54 10.43 15.16 10.59 15.81 11.72 17.53 10.34 20.72 10.72 26.71 13.27 28.71 16.17 34.16 17.99 34.53 19.9 30.53 26.71 28.35 27.26 23.26 33.07 20.72 34.34 18.9 37.25 18.17 39.25 16.54 38.89 16.54 35.25 17.99 29.8 18.9 24.35 15.99 22.53 13.45 17.99 14.17 15.81 15.63 11.99 14.35 11.72 13.22 11.56 11.44 11.89 8.04 9.14 4.86 7.91 .81 4.14 0 0 3.45 .91 7.01 2.79 6.91 4.83 8.54 5.92 10.25 4.95 11.45 6 10.97 7.27 12.36 8.72 13.54 10.43"/>
  <polygon class="cls-1" points="17.26 4.54 15.34 4.36 13.3 3.35 12.03 3.55 11.7 1.48 13.63 1.17 15.93 2.3 17.46 2.45 17.26 4.54"/>
  <rect class="cls-1" x="17.78" y="4.17" width="1.16" height="2.1"/>
  <rect class="cls-1" x="19.61" y="3.36" width="1.1" height="2.1"/>
</svg>