<?xml version="1.0" encoding="UTF-8"?>
<svg id="Capa_1" xmlns="http://www.w3.org/2000/svg" viewBox="0 0 78.91 78.91">
  <defs>
    <style>
      .cls-1 {
        fill: #fff;
      }
    </style>
  </defs>
  <circle class="cls-1" cx="39.46" cy="39.46" r="39.46"/>
  <path d="M52.83,49.47c0,1.61-1.31,2.92-2.92,2.92-1.61,0-2.92-1.31-2.92-2.92v-13.43s-15.93,15.93-15.93,15.93c-.57.57-1.32.85-2.06.85s-1.49-.28-2.06-.85c-1.14-1.14-1.14-2.99,0-4.13l15.93-15.93h-13.43c-1.61,0-2.92-1.31-2.92-2.92,0-1.61,1.31-2.92,2.92-2.92h21.27s2.12,0,2.12,0v2.12s0,21.27,0,21.27Z"/>
</svg>